PathFileType	4	(X/Y/Z)	Patient5_TMGait_0pt45_1_right_13.trc.trc
DataRate	CameraRate	NumFrames	NumMarkers	Units	OrigDataRate	OrigDataStartFrame	OrigNumFrames
63.348416289593	63.348416289593	4	32	mm	63.348416289593	1	       141
Frame#	Time	R.ASIS			L.ASIS			Chest			R.Shoulder			Neck			L.Shoulder			L.Elbow			L.Wrist			R.Elbow			R.Wrist			L.Thigh.Superior			L.Thigh.Lateral			L.Thigh.Inferior			L.Patella			L.Shank.Superior			L.Shank.Lateral			L.Shank.Inferior			L.Heel			L.Midfoot.Lateral			L.Midfoot.Superior			L.Toe			R.Thigh.Superior			R.Thigh.Lateral			R.Thigh.Inferior			R.Patella			R.Shank.Superior			R.Shank.Lateral			R.Shank.Inferior			R.Heel			R.Midfoot.Lateral			R.Midfoot.Superior			R.Toe			
		X1	Y1	Z1	X2	Y2	Z2	X3	Y3	Z3	X4	Y4	Z4	X5	Y5	Z5	X6	Y6	Z6	X7	Y7	Z7	X8	Y8	Z8	X9	Y9	Z9	X10	Y10	Z10	X11	Y11	Z11	X12	Y12	Z12	X13	Y13	Z13	X14	Y14	Z14	X15	Y15	Z15	X16	Y16	Z16	X17	Y17	Z17	X18	Y18	Z18	X19	Y19	Z19	X20	Y20	Z20	X21	Y21	Z21	X22	Y22	Z22	X23	Y23	Z23	X24	Y24	Z24	X25	Y25	Z25	X26	Y26	Z26	X27	Y27	Z27	X28	Y28	Z28	X29	Y29	Z29	X30	Y30	Z30	X31	Y31	Z31	X32	Y32	Z32	

1	21.380000000000	995.820931900709	1008.498659399916	498.269127422777	1001.373157579777	964.904614118024	263.476199977547	1056.097426560951	1451.402820724075	367.244313408695	933.580910377642	1521.580515928119	515.254332708529	937.717202141099	1573.352975441386	328.578986191949	1028.228102893009	1508.093944389022	164.107434443922	1037.491088395035	1175.368988435854	52.573912884667	1184.404191217712	935.867149178423	124.978274872873	838.930352955493	1205.926894832374	657.048441202369	1070.347008433640	1035.232028253070	613.077751074953	1014.656649847777	742.235079273627	274.080540036141	935.423172170171	674.783180305157	239.692108856250	1003.672629064572	613.702644083492	301.404620548340	993.924179105150	497.560956601922	312.720788447524	941.595997282345	398.352740633155	340.017201230093	867.393287607078	331.553164937854	266.110225501014	898.289161776925	278.665794087924	356.235331212366	747.614415569192	51.881148620519	366.339617096371	836.263737673396	27.524110973002	306.770544413342	933.387992092274	88.926112606195	351.574065301454	1040.458806202047	44.098034250719	358.150764296997	1075.140251009199	820.920757608150	548.817215105120	1024.697686948459	735.532064401951	621.120443409624	1117.210606651653	698.629835097578	552.235321242697	1152.189911328279	609.030886310909	600.468797118403	1124.475182761654	495.870594948077	577.253319266901	1057.988296393023	427.427534921318	662.701137779083	1123.541851822459	356.454459776474	590.719952622003	1032.313003124214	116.966975520735	579.271120308534	1111.160887085656	96.930897329459	655.763539197075	1207.652002267127	176.288244456111	640.800934177232	1315.394962439674	148.019334279230	645.201415940356	
2	21.395785714286	994.293089677984	1007.929140669863	498.620534873989	998.740830445892	964.488711398310	263.708894989524	1052.724339933194	1451.160754454154	367.638132535801	931.058310005594	1520.699148291141	516.643647879391	933.767786101771	1572.813018811301	329.977584601713	1022.954337929654	1507.877698258483	164.634743575471	1030.226267306025	1175.182930897005	52.603001397933	1175.451393224142	934.473577341742	124.396514639477	837.884471449342	1204.997363896023	659.256001337652	1068.495677297549	1033.711530602704	613.850705026643	1010.773600444920	741.197475356597	274.624594433554	931.010903238468	674.380271472175	240.103939564809	998.588346646615	612.619999710869	301.992166002671	987.924681234024	496.913121865411	313.331706229275	934.837906028458	397.901186109094	340.753739546971	860.691901329622	331.555135831822	266.558518246555	891.491336975623	278.435641354463	356.649720606331	740.085510512660	51.974414647988	366.441834848665	828.695462652462	27.609851466245	306.843501279252	925.757193263602	88.909407299662	351.601948186074	1032.889464216984	44.115242668404	358.120589491965	1074.480622890198	820.087666829783	547.818977650987	1025.327034242936	734.767153487085	621.029650536465	1116.849951301071	697.971726745824	550.958254975531	1152.757326333595	608.669236424788	598.991756582162	1124.802677345775	495.133872237773	576.386323531968	1059.493713340912	426.817868450392	662.715975188455	1124.110516706849	355.769050421021	590.032540866177	1032.928807693947	116.187552668710	579.967127898524	1112.655515073861	96.343334400545	655.509814192198	1208.950525717127	175.792843196785	639.293599023179	1316.700055880189	147.690454689994	642.561757056556	
3	21.411571428571	992.819927670054	1007.413454691003	498.987010059742	996.175590505385	964.115384566551	263.961281698578	1049.418507658147	1450.928160727811	368.056889954487	928.602642050517	1519.843613402471	518.050453863137	929.892570082874	1572.287971044495	331.380138261207	1017.760839507110	1507.663294205581	165.185897394822	1023.038125807922	1175.001513118510	52.652999034463	1166.576517240112	933.079686349791	123.798392838178	836.855975694187	1204.090644801974	661.435928113338	1066.643208335637	1032.174173174065	614.604098008302	1006.983263623152	740.218035875471	275.114215925639	926.666028551512	673.970079798324	240.526818953540	993.663334759381	611.603726956296	302.519443192887	982.073569083816	496.277594384389	313.864916769606	928.275893336953	397.471553469163	341.397109855339	854.103281897381	331.579632944186	266.968156429998	884.820385047892	278.225211254690	357.013814745270	732.654866676882	52.066922159635	366.541233682713	821.227667888449	27.690202199090	306.916901108887	918.237689290399	88.896686756214	351.622928610277	1025.416563343769	44.128829677595	358.095100826812	1073.741781525053	819.183938826341	546.919124545864	1025.765769711155	733.917053968149	620.957409662279	1116.345219672321	697.213103258682	549.764962618680	1153.100429336574	608.174402989104	597.591041114086	1124.936305599939	494.306388243383	575.546961689010	1060.737532306069	426.094653974618	662.692151187406	1124.493288089552	354.990449990063	589.355476671752	1033.400480930207	115.305520836982	580.565804165676	1113.945627017025	95.656709199391	655.229514507977	1210.037744310731	175.209652203832	637.850094782014	1317.799670136772	147.274711520628	640.066862390146	
4	21.427357142857	991.438839047023	1006.980384746565	499.393567488071	993.717960160634	963.808978172928	264.260345776819	1046.229330489694	1450.708919753057	368.543385508445	926.264020170219	1519.026427095614	519.512862160181	926.141583425871	1571.783056820301	332.820174478303	1012.700424622403	1507.449558858264	165.804026987015	1015.949195790776	1174.833496466033	52.756226959969	1157.782027131851	931.675029501698	123.165856683444	835.851191763693	1203.221388601174	663.593343727069	1064.782153926397	1030.616255612895	615.321867733358	1003.347551099293	739.340034620133	275.513219839340	922.434128871092	673.556111175237	240.960716772892	988.999696898519	610.699560259085	302.940097102335	976.464613760027	495.659695004570	314.258602853761	922.027697991585	397.077349601670	341.879240783940	847.682588319896	331.649212493654	267.309665977245	878.343766362318	278.050417162911	357.289285256069	725.355752680178	52.162556932287	366.632620054131	813.895480847727	27.762282046923	306.990701214413	910.873791907390	88.891383811402	351.630097489202	1018.070911647673	44.138474006865	358.075800721929	1072.844922430606	818.126842100298	546.211086606148	1025.817431395199	732.883236422044	620.920747980475	1115.549072044206	696.244631985429	548.736568810404	1152.988667516139	607.403806368532	596.337735010432	1124.675029370320	493.285968375573	574.750363464617	1061.445260164312	425.130808029356	662.581057218145	1124.483525667532	354.007866322270	588.679129180920	1033.547025773322	114.208968609092	580.941853279065	1114.792126674254	94.753120701254	654.864064143682	1210.676354605261	174.423525717568	636.497232993859	1318.459720827337	146.657922869417	637.824371975453	
